<?xml version="1.0" encoding="UTF-8" standalone="no"?>
<!-- Created with Inkscape (http://www.inkscape.org/) -->

<svg
   xmlns:dc="http://purl.org/dc/elements/1.1/"
   xmlns:cc="http://creativecommons.org/ns#"
   xmlns:rdf="http://www.w3.org/1999/02/22-rdf-syntax-ns#"
   xmlns:svg="http://www.w3.org/2000/svg"
   xmlns="http://www.w3.org/2000/svg"
   version="1.1"
   width="521"
   height="521"
   id="svg6398">
  <defs
     id="defs6400" />
  <metadata
     id="metadata6403">
    <rdf:RDF>
      <cc:Work
         rdf:about="">
        <dc:format>image/svg+xml</dc:format>
        <dc:type
           rdf:resource="http://purl.org/dc/dcmitype/StillImage" />
        <dc:title></dc:title>
      </cc:Work>
    </rdf:RDF>
  </metadata>
  <g
     transform="translate(0.5,-211.86218)"
     id="layer1"
     style="display:inline">
    <path
       d="m 0,732.36218 80,0 0,-40 40,0 0,-40 40,0 0,-40 40,0 0,-40 40,0 0,-40 40,0 0,-40 40,0 0,-40 40,0 0,-40 40,0 0,0 0,160 40,0 0,40 40,0 0,-40 40,0 0,-200 -40,0 0,-120"
       id="path6408"
       style="fill:#000000;fill-opacity:1;stroke:#000000;stroke-width:1px;stroke-linecap:butt;stroke-linejoin:miter;stroke-opacity:1" />
    <path
       d="m 1e-6,732.36218 c 0,-26.66667 0,-53.33333 0,-80 13.33333,0 26.66667,0 40,0 0,-13.33333 0,-26.66667 0,-40 13.33333,0 26.66667,0 40,0 0,-13.33333 0,-26.66667 0,-40 13.33333,0 26.666669,0 39.999999,0 0,-13.33333 0,-26.66667 0,-40 13.33333,0 26.66667,0 40,0 0,-13.33333 0,-26.66667 0,-40 13.33333,0 26.66667,0 40,0 0,-13.33333 0,-26.66667 0,-40 13.33333,0 26.66667,0 40,0 0,-13.33333 0,-26.66667 0,-40 13.33333,0 26.66667,0 40,0 0,-13.33333 0,-26.66667 0,-40 13.33333,0 26.66667,0 40,0 0,-13.33333 0,-26.66667 0,-40 -53.33333,0 -106.66667,0 -160,0 0,-13.33333 0,-26.66667 0,-40 -13.33333,0 -26.66667,0 -40,0 0,-13.33333 0,-26.66667 0,-40 13.33333,0 26.66667,0 40,0 0,-13.33333 0,-26.66667 0,-40 66.66667,0 133.33333,0 200,0 0,13.33333 0,26.66667 0,40 40,0 80,0 120,0"
       id="path6412"
       style="fill:#000000;fill-opacity:1;stroke:#000000;stroke-width:1px;stroke-linecap:butt;stroke-linejoin:miter;stroke-opacity:1" />
    <g
       id="g8025" />
    <path
       d="m 2.7713261,480.55573 0,-37.14285 19.9999999,0 20,0 0,-20 0,-20 20,0 20,0 0,-20 0,-20 20.000004,0 20,0 0,-20 0,-20 20,0 20,0 0,-20 0,-20 20,0 20,0 0,-20 0,-20 20,0 20,0 0,-20 0,-20 20,0 20,0 0,-20 0,-20 20,0 20,0 0,-22.85715 0,-22.85714 -80,0 -80,0 0,-20 0,-20 -20,0 -20,0 0,-17.142857 0,-17.142857 20,0 20,0 0,-20 0,-19.9999999 98.57142,0 98.57143,0 0,19.9999999 0,20 60,0 60,0 0,60.000004 0,60 20,0 20,0 0,97.14285 0,97.14286 -20,0 -20,0 0,20 0,20 -18.57143,0 -18.57142,0 0,-20 0,-20 -20,0 -20,0 0,-80 0,-80 -21.42858,0 -21.42857,0 0,20 0,20 -20,0 -20,0 0,20 0,20 -20,0 -20,0 0,20 0,20 -20,0 -20,0 0,20 0,20 -20,0 -20,0 0,20 0,20 -20,0 -20,0 0,20 0,20 -20,0 -20,0 0,20 0,20 -19.999997,0 -20,0 0,20 0,20 -38.571428,0 -38.5714289,0 0,-37.14286 z"
       transform="translate(-0.5,211.86218)"
       id="path8202"
       style="fill:none;stroke:none" />
    <path
       d="m 2.7713261,480.55573 0,-37.14285 19.9999999,0 20,0 0,-20 0,-20 20,0 20,0 0,-20 0,-20 20.000004,0 20,0 0,-20 0,-20 20,0 20,0 0,-20 0,-20 20,0 20,0 0,-20 0,-20 20,0 20,0 0,-20 0,-20 20,0 20,0 0,-20 0,-20 20,0 20,0 0,-22.85715 0,-22.85714 -80,0 -80,0 0,-20 0,-20 -20,0 -20,0 0,-17.142857 0,-17.142857 20,0 20,0 0,-20 0,-19.9999999 98.57142,0 98.57143,0 0,19.9999999 0,20 60,0 60,0 0,60.000004 0,60 20,0 20,0 0,97.14285 0,97.14286 -20,0 -20,0 0,20 0,20 -18.57143,0 -18.57142,0 0,-20 0,-20 -20,0 -20,0 0,-80 0,-80 -21.42858,0 -21.42857,0 0,20 0,20 -20,0 -20,0 0,20 0,20 -20,0 -20,0 0,20 0,20 -20,0 -20,0 0,20 0,20 -20,0 -20,0 0,20 0,20 -20,0 -20,0 0,20 0,20 -20,0 -20,0 0,20 0,20 -19.999997,0 -20,0 0,20 0,20 -38.571428,0 -38.5714289,0 0,-37.14286 z"
       transform="translate(-0.5,211.86218)"
       id="path8204"
       style="fill:none;stroke:none" />
    <path
       d="m 1.018095,480.08273 0,-38.38579 20.203051,0 20.203051,0 0,-20.20305 0,-20.20305 20.203051,0 20.203051,0 0,-19.1929 0,-19.1929 20.203051,0 20.20305,0 0,-20.20305 0,-20.20305 20.20305,0 20.20305,0 0,-20.20305 0,-20.20305 19.1929,0 19.1929,0 0,-20.20306 0,-20.20305 20.20305,0 20.20305,0 0,-20.20305 0,-20.20305 20.20305,0 20.20305,0 0,-19.1929 0,-19.1929 20.20305,0 20.20305,0 0,-22.22335 0,-22.22336 -79.80205,0 -79.80205,0 0,-20.203048 0,-20.203051 -20.20305,0 -20.20305,0 0,-18.182746 0,-18.182746 20.20305,0 20.20305,0 0,-20.20305 0,-20.2030513 97.9848,0 97.9848,0 0,20.2030513 0,20.20305 60.60915,0 60.60915,0 0,60.609151 0,60.60915 19.1929,0 19.1929,0 0,97.9848 0,97.9848 -19.1929,0 -19.1929,0 0,20.20305 0,20.20305 -19.1929,0 -19.1929,0 0,-20.20305 0,-20.20305 -20.20305,0 -20.20305,0 0,-79.80205 0,-79.80205 -21.2132,0 -21.2132,0 0,20.20305 0,20.20305 -20.20306,0 -20.20305,0 0,19.1929 0,19.19289 -19.19289,0 -19.1929,0 0,20.20306 0,20.20305 -20.20305,0 -20.20305,0 0,20.20305 0,20.20305 -20.20306,0 -20.20305,0 0,20.20305 0,20.20305 -20.20305,0 -20.20305,0 0,20.20305 0,20.20305 -20.20305,0 -20.20305,0 0,19.1929 0,19.1929 -19.192898,0 -19.192899,0 0,20.20305 0,20.20305 -39.395949,0 -39.395949,0 0,-38.3858 z"
       transform="translate(-0.5,211.86218)"
       id="path8206"
       style="fill:#000000;fill-opacity:1;stroke:none" />
  </g>
</svg>
